<?xml version="1.0" encoding="utf-8"?>
<!-- Designed by Vexels.com - 2019 All Rights Reserved - https://vexels.com/terms-and-conditions/  -->
<svg version="1.1" id="Layer_1" xmlns="http://www.w3.org/2000/svg" xmlns:xlink="http://www.w3.org/1999/xlink" x="0px" y="0px"
	 viewBox="0 0 1200 1200" enable-background="new 0 0 1200 1200" xml:space="preserve">
<g>
	<g>
		<path fill="#60B4FA" d="M923.939,467.841l15.86-4.744c6.731-2.013,13.497-3.428,20.245-4.293c0.23-0.03,0.46-0.06,0.69-0.088
			L776.362,116.978c-0.801-1.484-1.784-2.801-2.883-3.978c-5.797-6.202-15.235-8.002-23.057-3.782
			c-7.614,4.108-14.579,8.946-20.871,14.372c-40.517,34.944-52.81,94.494-26.358,143.524l123.919,229.688L923.939,467.841z"/>
		<path fill="#60B4FA" d="M290.741,466.159c-4.265-14.259-10.109-27.846-17.323-40.568c-19.886-35.071-50.275-63.516-87.422-80.938
			l-52.074-24.423l-21.409-10.041c-2.752-1.291-5.573-1.234-8.003-0.291c-4.658,1.809-7.853,6.939-6.184,12.521l0.323,1.079
			l87.852,293.706l14.085,47.088l5.717,19.114c2.066-0.891,4.165-1.731,6.298-2.518c2.512-0.928,5.065-1.791,7.666-2.57l0.669-0.2
			l25.752-7.703c-5.878-8.639-10.555-18.31-13.709-28.854c-14.762-49.353,8.706-101.049,53.26-123.308
			c9.527-4.76,14.465-15.489,11.669-25.764L290.741,466.159z"/>
		<path fill="#60B4FA" d="M1146.43,1059.314l-46.766-338.016c0.147-0.316,0.296-0.63,0.44-0.947l-4.133-29.87
			c-0.154,0.259-0.307,0.519-0.464,0.777c-9.249,15.271-21.742,28.617-36.859,38.905c-10.438,7.104-22.124,12.753-34.864,16.564
			l-55.545,16.614l-0.846,0.253l-13.584,4.063l-32.144,9.615l-0.997,0.298l-119.367,35.704l-31.239,9.344
			c6.958,10.382,16.868,18.254,28.214,22.758l-6.654,12.333l42.292-12.65c0.247,0.102,0.488,0.219,0.737,0.317L759.815,984.09
			c-11.991,22.226-5.134,49.562,15.07,63.693c1.554,1.087,3.177,2.105,4.887,3.027l12.452,6.718
			c6.087,3.284,13.408,1.99,18.04-2.687c1-1.01,1.88-2.169,2.589-3.483l110.082-204.041l-0.023-1.273l-0.498-27.455l18.256-5.461
			l0.846-0.253l13.686-4.094l4.948,146.117c0.493,14.55,3.583,28.894,9.124,42.356l0,0c20.14,48.925,64.373,82.213,114.768,89.579
			c13.487,1.971,27.415,2.093,41.441,0.152h0C1138.91,1085.128,1148.287,1072.739,1146.43,1059.314z"/>
	</g>
	<path fill="#E8372F" d="M1108.486,589.731L1108.486,589.731c-11.848-39.611-41.422-69.07-77.461-82.302
		c-15.174-5.571-31.494-8.252-48.119-7.617c-0.243,0.009-0.485,0.007-0.728,0.018c-10.184,0.449-20.478,2.146-30.688,5.2
		l-6.446,1.928l-96.828,28.962l-40.986,12.26L285.042,704.374l-10.307,3.083c-0.806,0.241-1.604,0.496-2.402,0.752
		c-3.525,1.13-6.967,2.4-10.321,3.805c-14.997,6.281-28.24,15.227-39.343,26.106c-12.991,12.729-23.046,28.101-29.533,44.95
		c-9.681,25.146-11.421,53.572-3.102,81.384v0c6.72,22.467,19.149,41.661,35.219,56.487c28.265,26.078,67.809,38.612,107.46,31.595
		c4.777-0.845,9.556-1.957,14.318-3.381l423.032-126.535l31.239-9.344l119.367-35.704l0.997-0.298l32.144-9.615l13.584-4.063
		l0.846-0.253l55.545-16.614c12.74-3.811,24.426-9.46,34.864-16.564c15.117-10.288,27.61-23.634,36.859-38.905
		c0.156-0.258,0.309-0.518,0.464-0.777c1.577-2.647,3.057-5.35,4.437-8.104C1114.303,654.654,1118.073,621.785,1108.486,589.731z"/>
	<g>
		<path fill="#BBDFFE" d="M729.55,123.591c-40.517,34.944-52.81,94.494-26.358,143.524l123.919,229.688l96.827-28.962
			L743.508,133.405C740.544,127.911,735.279,124.472,729.55,123.591z"/>
		<path fill="#BBDFFE" d="M248.499,466.159c-16.023-53.568-54.123-97.764-104.745-121.506L98.65,323.499l87.852,293.706
			c-2.232-41.177,20.257-80.346,57.495-98.951c9.527-4.76,14.465-15.489,11.669-25.764L248.499,466.159z"/>
		<path fill="#BBDFFE" d="M206.303,683.407c2.066-0.891,4.165-1.731,6.298-2.518c-4.497-5.071-8.532-10.618-12.015-16.596
			L206.303,683.407z"/>
		<path fill="#BBDFFE" d="M834.652,845.378L759.815,984.09c-11.991,22.226-5.134,49.562,15.07,63.693l119.058-220.678
			l-60.029,17.956C834.162,845.162,834.403,845.279,834.652,845.378z"/>
		<path fill="#BBDFFE" d="M1104.188,1059.314l-40.452-292.379c-12.214,9.703-26.44,17.291-42.298,22.034l-66.235,19.812
			l4.948,146.117c0.493,14.55,3.583,28.894,9.124,42.356l0,0c20.14,48.925,64.373,82.213,114.768,89.579
			C1097.033,1084.599,1106.008,1072.467,1104.188,1059.314z"/>
	</g>
	<path fill="#B21B1B" d="M1108.486,589.731L1108.486,589.731c-11.848-39.611-41.422-69.07-77.461-82.302
		c16.07,14.827,28.499,34.021,35.219,56.487l0,0c6.301,21.064,6.83,42.48,2.513,62.557c-0.387,1.801-0.808,3.593-1.273,5.371
		c-3.561,13.627-9.379,26.547-17.151,38.214c-15.732,23.614-39.481,42.088-68.79,50.854l-25.568,7.648l-3.454,1.033l-16.918,5.06
		l-5.294,1.583l-9.337,2.793l-123.481,36.935l-37.728,11.285L304.788,923.34c-27.132,8.116-54.85,6.665-79.536-2.399
		c28.265,26.078,67.809,38.612,107.46,31.595c4.777-0.845,9.556-1.957,14.318-3.381l423.032-126.535l31.239-9.344l119.367-35.704
		l0.997-0.298l32.144-9.615l13.584-4.063l0.846-0.253l55.545-16.614c12.74-3.811,24.426-9.46,34.864-16.564
		c15.117-10.288,27.61-23.634,36.859-38.905c0.156-0.258,0.309-0.518,0.464-0.777c1.577-2.647,3.057-5.35,4.437-8.104
		C1114.303,654.654,1118.073,621.785,1108.486,589.731z"/>
	<g>
		<path fill="#FFFFFF" d="M951.489,505.03c10.211-3.054,20.505-4.751,30.688-5.2c0.243-0.011,0.485-0.009,0.728-0.018
			c16.625-0.635,32.946,2.046,48.119,7.617c36.038,13.232,65.613,42.691,77.461,82.302l0,0c9.588,32.054,5.818,64.924-8.078,92.646
			c14.335-27.943,18.323-61.244,8.612-93.707l-12.225-40.872c-17.882-59.783-76.141-96.433-136.062-89.082
			c-0.23,0.028-0.46,0.058-0.69,0.088c-6.748,0.866-13.514,2.28-20.245,4.293l-15.86,4.744l-96.827,28.962L703.192,267.115
			c-26.452-49.03-14.158-108.581,26.358-143.524c6.292-5.426,13.257-10.265,20.871-14.372c7.822-4.22,17.26-2.42,23.057,3.782
			l-7.648-14.177c-5.021-9.306-16.635-12.78-25.941-7.759l-36.298,19.583c-56.644,30.56-77.789,101.252-47.229,157.896
			l129.763,240.52L246.688,670.416l-25.752,7.703l-0.669,0.2c-2.602,0.778-5.154,1.642-7.666,2.57
			c-2.132,0.788-4.232,1.627-6.298,2.518l-5.717-19.114l-14.085-47.088L98.65,323.499l-0.323-1.079
			c-1.67-5.582,1.526-10.712,6.184-12.521l-35.444-12.45c-9.869-3.467-21.325,5.059-18.68,13.902l118.683,396.78
			c-32.998,31.712-47.52,80.322-33.502,127.185l12.225,40.872c19.964,66.743,90.254,104.665,156.997,84.701l27.924-8.353
			c-39.651,7.017-79.196-5.517-107.46-31.595c-16.07-14.827-28.499-34.021-35.219-56.487v0c-8.319-27.813-6.579-56.238,3.102-81.384
			c6.487-16.849,16.542-32.221,29.533-44.95c11.103-10.879,24.346-19.825,39.343-26.106c3.354-1.405,6.796-2.675,10.321-3.805
			c0.798-0.256,1.596-0.51,2.402-0.752l10.307-3.083L807.229,548.18l40.986-12.26l96.828-28.962L951.489,505.03z"/>
		<path fill="#FFFFFF" d="M834.652,845.378c-0.249-0.099-0.489-0.215-0.737-0.317l-42.292,12.65L723.44,984.09
			c-12.913,23.935-3.978,53.807,19.957,66.72l41.786,18.452c7.4,3.993,16.636,1.23,20.629-6.17l4.451-8.251
			c-4.631,4.677-11.953,5.971-18.04,2.687l-12.452-6.718c-1.709-0.922-3.333-1.94-4.887-3.027
			c-20.204-14.132-27.062-41.467-15.07-63.693L834.652,845.378z"/>
		<path fill="#FFFFFF" d="M1149.784,1079.43l-49.681-359.079c-0.144,0.317-0.293,0.631-0.44,0.947l46.766,338.016
			c1.857,13.425-7.52,25.814-20.945,27.672h0c-14.026,1.941-27.954,1.819-41.441-0.152c-50.395-7.366-94.628-40.653-114.768-89.579
			l0,0c-5.542-13.462-8.632-27.806-9.124-42.356l-4.948-146.117l-13.686,4.094l-0.846,0.253l-18.256,5.461l0.498,27.455l0.023,1.273
			l2.271,125.342c0.28,15.439,3.727,30.602,10.18,44.774v0c29.729,65.293,107.161,103.064,188.278,91.841h0
			C1140.057,1107.006,1151.751,1093.645,1149.784,1079.43z"/>
		
			<ellipse transform="matrix(0.834 -0.5517 0.5517 0.834 -398.2379 320.4721)" fill="#FFFFFF" cx="333.534" cy="822.143" rx="57.496" ry="57.496"/>
	</g>
</g>
</svg>
